<svg width="36" height="27" viewBox="0 0 36 27" fill="none" xmlns="http://www.w3.org/2000/svg">
<g filter="url(#filter0_d_20_68)">
<path d="M31.9893 3.0088C31.9844 2.44462 31.9783 1.86982 31.9783 1.28919C31.9783 0.965447 31.7058 0.70268 31.3701 0.70268C31.0344 0.70268 30.7619 0.965447 30.7619 1.28919C30.7619 10.2097 25.6991 11.3546 21.2883 11.3546C20.9806 11.3546 20.6789 11.3499 20.387 11.3405C20.1874 9.96341 19.1888 8.91355 17.9894 8.91355C16.8034 8.91355 15.8132 9.94224 15.6027 11.3405C15.301 11.3499 14.9909 11.3557 14.6758 11.3557C10.203 11.3557 5.58061 10.1569 5.21568 1.26571C5.20228 0.940814 4.91034 0.696797 4.58435 0.70268C4.24867 0.715601 3.98712 0.987715 4.00052 1.31146C4.00052 1.31146 4.00052 1.31261 4.00052 1.31498C4.03947 2.2745 4.04916 3.21406 4.05771 4.12195C4.09666 8.11129 4.1307 11.5563 6.6645 13.48C9.73475 15.8084 14.3219 18.2975 17.9894 18.2975C21.657 18.2975 26.2429 15.8084 29.3144 13.48C32.0708 11.3874 32.0331 7.50482 31.9893 3.0088Z" fill="#F2F3F4"/>
<path d="M10.484 9.06371C11.1129 9.06371 11.8209 8.64848 12.7162 8.12179C13.9095 7.41915 15.3948 6.54645 16.9372 6.54645C17.0638 6.54645 17.1927 6.55234 17.3825 6.56872C17.588 6.56872 17.79 6.53117 17.9919 6.45375C18.1987 6.53001 18.3568 6.57576 18.6609 6.5652C20.3432 6.39514 21.9733 7.36164 23.2651 8.12173C24.1604 8.64842 24.8683 9.06366 25.4973 9.06366C25.8232 9.06366 26.1091 8.95221 26.3281 8.74228C26.5605 8.51822 26.648 8.20388 26.5653 7.88014C26.1748 6.32828 20.8955 3.68906 19.3847 3.23044C19.3093 3.19525 19.2326 3.17178 19.1062 3.1378C18.9274 3.08853 18.7692 3.06038 18.6001 3.04867C18.3946 3.04867 18.1926 3.08622 17.9907 3.16364C17.7863 3.08738 17.5795 3.05455 17.3375 3.05103C17.2134 3.06043 17.0589 3.08974 16.8314 3.14956C16.7511 3.17068 16.6733 3.19531 16.6806 3.19767C15.0859 3.68796 9.80779 6.32718 9.41606 7.87904C9.33578 8.20278 9.42216 8.51712 9.65446 8.74118C9.87222 8.95232 10.1581 9.06371 10.484 9.06371Z" fill="#F2F3F4"/>
</g>
<defs>
<filter id="filter0_d_20_68" x="3.05176e-05" y="0.702576" width="36" height="25.5948" filterUnits="userSpaceOnUse" color-interpolation-filters="sRGB">
<feFlood flood-opacity="0" result="BackgroundImageFix"/>
<feColorMatrix in="SourceAlpha" type="matrix" values="0 0 0 0 0 0 0 0 0 0 0 0 0 0 0 0 0 0 127 0" result="hardAlpha"/>
<feOffset dy="4"/>
<feGaussianBlur stdDeviation="2"/>
<feComposite in2="hardAlpha" operator="out"/>
<feColorMatrix type="matrix" values="0 0 0 0 0 0 0 0 0 0 0 0 0 0 0 0 0 0 0.75 0"/>
<feBlend mode="normal" in2="BackgroundImageFix" result="effect1_dropShadow_20_68"/>
<feBlend mode="normal" in="SourceGraphic" in2="effect1_dropShadow_20_68" result="shape"/>
</filter>
</defs>
</svg>
