<svg width="38" height="45" viewBox="0 0 38 45" fill="none" xmlns="http://www.w3.org/2000/svg">
<g filter="url(#filter0_d_6_244)">
<path d="M14.6677 17.9871C18.8477 13.5764 22.2662 10.9588 24.8861 9.29287C26.4999 5.08365 28.7412 1.46881 29.2314 0.911576C28.9287 1.05303 28.6225 1.20019 28.2918 1.37879C25.6452 2.81187 18.0361 8.08411 12.658 15.5796C3.79488 27.9329 3.70173 32.305 4.13487 32.5336C4.93013 32.9551 6.34249 26.7684 14.6677 17.9871Z" fill="#F2F3F4"/>
<path d="M32.9434 7.03252C34.4012 2.98904 34.3371 0.561522 32.834 0.0857344C31.2225 -0.424344 30.1117 1.36879 28.8495 4.65501C27.9029 7.11682 26.4684 13.6607 19.3367 23.8408C12.1433 34.111 7.07487 35.8513 7.42069 36.8343C7.60815 37.3672 11.1897 37.2529 21.3091 26.3198C27.4488 19.6845 31.7686 10.2973 32.9434 7.03252Z" fill="#F2F3F4"/>
</g>
<defs>
<filter id="filter0_d_6_244" x="0" y="-0.00012207" width="38" height="45.0002" filterUnits="userSpaceOnUse" color-interpolation-filters="sRGB">
<feFlood flood-opacity="0" result="BackgroundImageFix"/>
<feColorMatrix in="SourceAlpha" type="matrix" values="0 0 0 0 0 0 0 0 0 0 0 0 0 0 0 0 0 0 127 0" result="hardAlpha"/>
<feOffset dy="4"/>
<feGaussianBlur stdDeviation="2"/>
<feComposite in2="hardAlpha" operator="out"/>
<feColorMatrix type="matrix" values="0 0 0 0 0 0 0 0 0 0 0 0 0 0 0 0 0 0 0.75 0"/>
<feBlend mode="normal" in2="BackgroundImageFix" result="effect1_dropShadow_6_244"/>
<feBlend mode="normal" in="SourceGraphic" in2="effect1_dropShadow_6_244" result="shape"/>
</filter>
</defs>
</svg>
