<svg width="30" height="51" viewBox="0 0 30 51" fill="none" xmlns="http://www.w3.org/2000/svg">
<g filter="url(#filter0_d_20_40)">
<path d="M25.9824 7.07174L25.1397 0.929657H4.86026L4.01764 7.07182C3.92813 7.72429 4.18217 8.37924 4.7148 8.86891C5.24744 9.3585 6.01142 9.63933 6.81071 9.63933H9.63382V10.9109C8.87884 10.9726 8.19008 11.2793 7.71272 11.7747C7.17627 12.3314 6.98248 13.0469 7.18096 13.7379L7.97165 16.4908C8.37134 17.8822 8.29592 19.3356 7.7538 20.6939L7.01242 22.5512C6.717 23.2912 6.56724 24.0613 6.56724 24.84V39.7614C6.56724 41.0346 7.82815 42.0703 9.37812 42.0703H20.6215C22.1714 42.0703 23.4324 41.0346 23.4324 39.7614V24.8399C23.4324 24.0612 23.2826 23.2911 22.9874 22.5511L22.246 20.6939C21.7038 19.3354 21.6285 17.882 22.0281 16.4907L22.8188 13.7377C23.0172 13.0468 22.8235 12.3312 22.287 11.7745C21.8097 11.2792 21.1208 10.9725 20.3659 10.9108V9.63917H23.1889C23.9882 9.63917 24.7522 9.35842 25.2849 8.86875C25.8177 8.37924 26.0718 7.7242 25.9824 7.07174ZM8.61169 2.18903H21.3883V3.19657H8.61169V2.18903ZM8.61159 4.45602H21.3883V4.85883C21.3883 5.19221 21.0581 5.46348 20.6522 5.46348H9.34769C8.94183 5.46348 8.61159 5.19229 8.61159 4.85883V4.45602ZM8.10058 36.1091H9.17377V34.8497H8.10058V34.0101H9.17377V32.7506H8.10058V31.911H9.17377V30.6517H8.10058V29.1798C9.39308 29.4591 10.3493 30.427 10.3493 31.5752V35.1856C10.3493 36.3337 9.39308 37.3017 8.10058 37.581V36.1091ZM21.8993 30.6517H20.8261V31.911H21.8993V32.7506H20.8261V34.0101H21.8993V34.8497H20.8261V36.1091H21.8993V37.581C20.6068 37.3016 19.6506 36.3337 19.6506 35.1855V31.5751C19.6506 30.427 20.6068 29.459 21.8993 29.1797V30.6517ZM21.085 12.5561C21.3289 12.8092 21.4169 13.1344 21.3266 13.4485L20.5359 16.2015C20.0715 17.8184 20.1591 19.5075 20.7892 21.0861L21.5306 22.9433C21.7754 23.5565 21.8994 24.1945 21.8994 24.8397V27.893C19.7552 28.1933 18.1175 29.7296 18.1175 31.5751V35.1854C18.1175 37.0309 19.7552 38.5671 21.8994 38.8675V39.7613C21.8994 40.34 21.3262 40.8108 20.6217 40.8108H9.37821C8.67361 40.8108 8.10058 40.34 8.10058 39.7613V38.8676C10.2447 38.5672 11.8824 37.0309 11.8824 35.1855V31.5751C11.8824 29.7296 10.2447 28.1934 8.10058 27.8931V24.8398C8.10058 24.1945 8.22461 23.5565 8.46936 22.9434L9.21074 21.0861C9.84081 19.5075 9.92836 17.8185 9.464 16.2015L8.67332 13.4485C8.58303 13.1344 8.67117 12.8092 8.91493 12.5562C9.1587 12.3032 9.52397 12.1581 9.91672 12.1581H20.0832C20.476 12.158 20.841 12.3032 21.085 12.5561ZM11.167 10.8986V9.63925H18.8329V10.8986H11.167ZM24.1418 8.02963C23.8961 8.25542 23.5577 8.3798 23.189 8.3798H6.81061C6.44193 8.3798 6.10357 8.25542 5.85804 8.02963C5.61231 7.80383 5.49982 7.51368 5.5411 7.21276L6.23034 2.18911H7.07854V4.85891C7.07854 5.88686 8.09647 6.72301 9.34779 6.72301H20.6522C21.9035 6.72301 22.9215 5.88686 22.9215 4.85891V2.18903H23.7697L24.4589 7.21276C24.5001 7.51376 24.3874 7.80375 24.1418 8.02963Z" fill="#F2F3F4"/>
<path d="M15 16.1685C13.5628 16.1685 12.3935 17.1289 12.3935 18.3095V23.2631C12.3935 24.4436 13.5628 25.4041 15 25.4041C16.4372 25.4041 17.6064 24.4436 17.6064 23.2631V18.3095C17.6064 17.1289 16.4371 16.1685 15 16.1685ZM16.0732 23.2631C16.0732 23.7493 15.5917 24.1447 15 24.1447C14.4082 24.1447 13.9268 23.7492 13.9268 23.2631V20.2598C14.2544 20.3819 14.6175 20.4505 15 20.4505C15.3824 20.4505 15.7457 20.3819 16.0732 20.2598V23.2631ZM15 19.191C14.4082 19.191 13.9268 18.7955 13.9268 18.3095C13.9268 17.8234 14.4083 17.4279 15 17.4279C15.5918 17.4279 16.0732 17.8234 16.0732 18.3095C16.0732 18.7955 15.5918 19.191 15 19.191Z" fill="#F2F3F4"/>
</g>
<defs>
<filter id="filter0_d_20_40" x="0" y="0.929657" width="30" height="49.1407" filterUnits="userSpaceOnUse" color-interpolation-filters="sRGB">
<feFlood flood-opacity="0" result="BackgroundImageFix"/>
<feColorMatrix in="SourceAlpha" type="matrix" values="0 0 0 0 0 0 0 0 0 0 0 0 0 0 0 0 0 0 127 0" result="hardAlpha"/>
<feOffset dy="4"/>
<feGaussianBlur stdDeviation="2"/>
<feComposite in2="hardAlpha" operator="out"/>
<feColorMatrix type="matrix" values="0 0 0 0 0 0 0 0 0 0 0 0 0 0 0 0 0 0 0.75 0"/>
<feBlend mode="normal" in2="BackgroundImageFix" result="effect1_dropShadow_20_40"/>
<feBlend mode="normal" in="SourceGraphic" in2="effect1_dropShadow_20_40" result="shape"/>
</filter>
</defs>
</svg>
