<svg width="26" height="39" viewBox="0 0 26 39" fill="none" xmlns="http://www.w3.org/2000/svg">
<g filter="url(#filter0_d_6_226)">
<path d="M19.1428 28.6387V27.5287C19.47 27.8387 19.9531 28.255 20.2749 28.53C20.3995 28.635 20.5535 28.6537 20.6892 28.5787C20.8249 28.5037 20.9266 28.345 20.9615 28.1512C21.2768 26.4337 20.868 24.555 19.922 23.3575C19.7496 23.14 19.4801 22.7938 19.1419 22.3513V4.87501C19.1418 2.46248 17.7027 0.5 15.9335 0.5C15.6805 0.5 15.4752 0.780019 15.4752 1.12502V16.125C15.4752 16.47 15.6658 16.745 15.9179 16.745C15.9308 16.7537 16.1645 16.9562 16.3332 18.5112C13.8536 14.9737 10.7653 10.145 8.98977 5.77126C8.67627 4.99876 8.13177 4.46251 7.49837 4.30126C6.86402 4.13878 6.21502 4.36999 5.71452 4.93753C5.21767 5.50255 4.93352 6.32878 4.93352 7.20628C4.93352 7.71628 5.03252 8.22129 5.21952 8.66502C6.82642 12.4738 11.1009 19.7463 16.4826 25.0875C16.4716 25.7462 16.4579 26.3825 16.445 26.9575C16.4304 27.5863 16.4184 28.15 16.412 28.6075V28.6387C16.412 29.1349 16.5532 29.6025 16.8108 29.9537C17.0684 30.3062 17.4112 30.5 17.7769 30.5C18.5304 30.4999 19.1428 29.6649 19.1428 28.6387ZM7.68442 9.24996C7.68442 8.90496 7.88977 8.62495 8.14277 8.62495C8.39577 8.62495 8.60112 8.90496 8.60112 9.24996C8.60112 9.59496 8.39577 9.87498 8.14277 9.87498C7.88977 9.87498 7.68442 9.59496 7.68442 9.24996ZM12.7261 18C12.7261 17.655 12.9314 17.375 13.1844 17.375C13.4374 17.375 13.6428 17.655 13.6428 18C13.6428 18.345 13.4374 18.625 13.1844 18.625C12.9314 18.6249 12.7261 18.345 12.7261 18ZM17.3635 19.9562C17.2764 18.08 17.0766 16.2237 16.3928 15.6674V1.8125C17.4378 2.10248 18.2261 3.36499 18.2261 4.87501V21.1337C17.9511 20.7624 17.6623 20.3687 17.3635 19.9562ZM17.7678 24.2499C17.7678 23.9049 17.9731 23.6249 18.2261 23.6249C18.4791 23.6249 18.6845 23.9049 18.6845 24.2499C18.6845 24.5949 18.4791 24.875 18.2261 24.875C17.9731 24.875 17.7678 24.5949 17.7678 24.2499ZM17.4616 29.0712C17.3772 28.9549 17.3305 28.8024 17.3305 28.6387H16.8721L17.3305 28.6287C17.336 28.1749 17.3488 27.6174 17.3626 26.9949C17.3699 26.6612 17.3782 26.3099 17.3846 25.9449C17.6623 26.2037 17.9437 26.4524 18.2261 26.6987V28.6399C18.2261 28.9774 18.0253 29.2512 17.7778 29.2512C17.6578 29.25 17.545 29.1862 17.4616 29.0712Z" fill="#F2F3F4"/>
</g>
<defs>
<filter id="filter0_d_6_226" x="0.933517" y="0.5" width="24.1329" height="38" filterUnits="userSpaceOnUse" color-interpolation-filters="sRGB">
<feFlood flood-opacity="0" result="BackgroundImageFix"/>
<feColorMatrix in="SourceAlpha" type="matrix" values="0 0 0 0 0 0 0 0 0 0 0 0 0 0 0 0 0 0 127 0" result="hardAlpha"/>
<feOffset dy="4"/>
<feGaussianBlur stdDeviation="2"/>
<feComposite in2="hardAlpha" operator="out"/>
<feColorMatrix type="matrix" values="0 0 0 0 0 0 0 0 0 0 0 0 0 0 0 0 0 0 0.75 0"/>
<feBlend mode="normal" in2="BackgroundImageFix" result="effect1_dropShadow_6_226"/>
<feBlend mode="normal" in="SourceGraphic" in2="effect1_dropShadow_6_226" result="shape"/>
</filter>
</defs>
</svg>
