<svg width="38" height="43" viewBox="0 0 38 43" fill="none" xmlns="http://www.w3.org/2000/svg">
<g filter="url(#filter0_d_6_208)">
<path d="M32.6911 22.862C30.9459 24.6203 28.116 24.6209 26.3709 22.862C25.5067 21.9917 25.072 20.8549 25.0625 19.7139C25.0614 19.5214 25.0614 19.414 24.9928 19.2407C24.9232 19.0667 24.709 18.8812 24.5296 18.7525C23.3067 17.8773 22.1967 17.4222 21.2281 17.2202C21.1332 15.6464 21.8137 14.7127 21.8475 14.668L21.9815 14.4979C22.9364 14.9232 24.2722 15.4427 25.4213 15.9925C25.7589 16.1536 26.1356 16.2871 26.3814 16.244C26.6273 16.2009 27.0198 15.9261 27.3828 15.7251C29.0805 14.7872 31.2541 15.0424 32.6912 16.4918C34.4363 18.2506 34.4363 21.1027 32.6911 22.862ZM31.2393 17.955C30.2959 17.0043 28.766 17.0043 27.8227 17.955C26.8784 18.9057 26.8784 20.4476 27.8227 21.3983C28.766 22.349 30.2959 22.349 31.2393 21.3983C32.1825 20.4476 32.1825 18.9056 31.2393 17.955Z" fill="#F2F3F4"/>
<path d="M21.7809 21.5227C21.9086 21.704 22.0932 21.9198 22.2653 21.989C22.4372 22.0592 22.5438 22.0586 22.7348 22.0603C23.8659 22.0698 24.9949 22.5085 25.858 23.3783C27.6032 25.1377 27.6032 27.9892 25.858 29.7487C25.2608 30.35 24.5369 30.7461 23.772 30.9359C23.6654 33.0074 23.0112 34.1676 23.0112 34.1676L21.5593 33.7369C22.1038 32.7176 22.0817 31.274 22.0732 31.0237C21.1447 30.8923 20.251 30.4675 19.5367 29.7487C18.0995 28.2997 17.8463 26.1091 18.7769 24.3981C18.9764 24.0323 19.2486 23.6367 19.2919 23.3889C19.3341 23.1411 19.2021 22.7626 19.0418 22.4217C18.2557 20.7517 17.5297 18.6866 17.0602 17.955C17.0602 17.955 6.55313 5.6445 5.2722 4.00847C3.99127 2.37296 3.73487 1.59883 4.24761 1.08201C4.75939 0.565181 5.52854 0.823593 7.15135 2.11462C8.77415 3.40662 20.9895 13.9949 20.9895 13.9949C20.9895 13.9949 18.5976 17.0074 21.7809 21.5227ZM20.9896 28.2854C21.9329 29.2361 23.4617 29.2361 24.4062 28.2854C25.3495 27.3341 25.3495 25.7922 24.4062 24.842C23.4618 23.8908 21.9329 23.8908 20.9896 24.8415C20.0453 25.7922 20.0453 27.3341 20.9896 28.2854ZM18.5121 14.2533C18.1819 13.9204 17.6459 13.9204 17.3167 14.2533C16.9864 14.5861 16.9864 15.1253 17.3167 15.4581C17.6459 15.791 18.1819 15.791 18.5121 15.4581C18.8424 15.1253 18.8424 14.5861 18.5121 14.2533Z" fill="#F2F3F4"/>
</g>
<defs>
<filter id="filter0_d_6_208" x="0" y="0.832413" width="38" height="41.3352" filterUnits="userSpaceOnUse" color-interpolation-filters="sRGB">
<feFlood flood-opacity="0" result="BackgroundImageFix"/>
<feColorMatrix in="SourceAlpha" type="matrix" values="0 0 0 0 0 0 0 0 0 0 0 0 0 0 0 0 0 0 127 0" result="hardAlpha"/>
<feOffset dy="4"/>
<feGaussianBlur stdDeviation="2"/>
<feComposite in2="hardAlpha" operator="out"/>
<feColorMatrix type="matrix" values="0 0 0 0 0 0 0 0 0 0 0 0 0 0 0 0 0 0 0.75 0"/>
<feBlend mode="normal" in2="BackgroundImageFix" result="effect1_dropShadow_6_208"/>
<feBlend mode="normal" in="SourceGraphic" in2="effect1_dropShadow_6_208" result="shape"/>
</filter>
</defs>
</svg>
