<svg width="168" height="58" viewBox="0 0 168 58" fill="none" xmlns="http://www.w3.org/2000/svg">
<path d="M2.23363 37.3333V19.8788H8.3359C9.55181 19.8788 10.5547 20.089 11.3444 20.5095C12.1342 20.9242 12.7223 21.4839 13.1086 22.1884C13.495 22.8873 13.6882 23.6629 13.6882 24.5151C13.6882 25.2651 13.5547 25.8845 13.2876 26.3731C13.0262 26.8617 12.6797 27.2481 12.2478 27.5322C11.8217 27.8163 11.3586 28.0265 10.8586 28.1629V28.3333C11.3927 28.3674 11.9297 28.5549 12.4694 28.8958C13.0092 29.2367 13.4609 29.7254 13.8245 30.3617C14.1882 30.9981 14.37 31.7765 14.37 32.697C14.37 33.572 14.1711 34.3589 13.7734 35.0578C13.3757 35.7566 12.7478 36.3106 11.8899 36.7197C11.0319 37.1288 9.91545 37.3333 8.54045 37.3333H2.23363ZM4.34727 35.4583H8.54045C9.92113 35.4583 10.9012 35.1913 11.4808 34.6572C12.066 34.1174 12.3586 33.464 12.3586 32.697C12.3586 32.1061 12.2081 31.5606 11.9069 31.0606C11.6058 30.5549 11.1768 30.1515 10.62 29.8504C10.0632 29.5436 9.40409 29.3901 8.64272 29.3901H4.34727V35.4583ZM4.34727 27.5492H8.26772C8.90409 27.5492 9.47795 27.4242 9.98931 27.1742C10.5064 26.9242 10.9154 26.572 11.2166 26.1174C11.5234 25.6629 11.6768 25.1288 11.6768 24.5151C11.6768 23.7481 11.4098 23.0975 10.8757 22.5634C10.3416 22.0237 9.495 21.7538 8.3359 21.7538H4.34727V27.5492ZM18.5589 37.3333H16.343L22.7521 19.8788H24.9339L31.343 37.3333H29.1271L23.9112 22.6401H23.7748L18.5589 37.3333ZM19.3771 30.5151H28.3089V32.3901H19.3771V30.5151ZM34.0618 37.3333V19.8788H39.9595C41.3231 19.8788 42.4424 20.1117 43.3174 20.5776C44.1924 21.0379 44.8402 21.6714 45.2606 22.4782C45.6811 23.285 45.8913 24.2026 45.8913 25.2311C45.8913 26.2595 45.6811 27.1714 45.2606 27.9669C44.8402 28.7623 44.1953 29.3873 43.326 29.8419C42.4566 30.2907 41.3458 30.5151 39.9936 30.5151H35.2208V28.6061H39.9254C40.8572 28.6061 41.6072 28.4697 42.1754 28.197C42.7493 27.9242 43.164 27.5379 43.4197 27.0379C43.6811 26.5322 43.8118 25.9299 43.8118 25.2311C43.8118 24.5322 43.6811 23.9214 43.4197 23.3987C43.1583 22.8759 42.7407 22.4725 42.1669 22.1884C41.593 21.8987 40.8345 21.7538 39.8913 21.7538H36.1754V37.3333H34.0618ZM42.2777 29.4924L46.5731 37.3333H44.1186L39.8913 29.4924H42.2777ZM49.4133 37.3333V19.8788H55.5156C56.7315 19.8788 57.7343 20.089 58.5241 20.5095C59.3139 20.9242 59.902 21.4839 60.2883 22.1884C60.6747 22.8873 60.8679 23.6629 60.8679 24.5151C60.8679 25.2651 60.7343 25.8845 60.4673 26.3731C60.2059 26.8617 59.8593 27.2481 59.4275 27.5322C59.0014 27.8163 58.5383 28.0265 58.0383 28.1629V28.3333C58.5724 28.3674 59.1093 28.5549 59.6491 28.8958C60.1889 29.2367 60.6406 29.7254 61.0042 30.3617C61.3679 30.9981 61.5497 31.7765 61.5497 32.697C61.5497 33.572 61.3508 34.3589 60.9531 35.0578C60.5554 35.7566 59.9275 36.3106 59.0696 36.7197C58.2116 37.1288 57.0951 37.3333 55.7201 37.3333H49.4133ZM51.527 35.4583H55.7201C57.1008 35.4583 58.0809 35.1913 58.6605 34.6572C59.2457 34.1174 59.5383 33.464 59.5383 32.697C59.5383 32.1061 59.3878 31.5606 59.0866 31.0606C58.7855 30.5549 58.3565 30.1515 57.7997 29.8504C57.2429 29.5436 56.5838 29.3901 55.8224 29.3901H51.527V35.4583ZM51.527 27.5492H55.4474C56.0838 27.5492 56.6576 27.4242 57.169 27.1742C57.686 26.9242 58.0951 26.572 58.3963 26.1174C58.7031 25.6629 58.8565 25.1288 58.8565 24.5151C58.8565 23.7481 58.5895 23.0975 58.0554 22.5634C57.5213 22.0237 56.6747 21.7538 55.5156 21.7538H51.527V27.5492ZM65.0227 37.3333V19.8788H75.5568V21.7538H67.1363V27.6515H75.0113V29.5265H67.1363V35.4583H75.6931V37.3333H65.0227ZM79.3664 37.3333V19.8788H85.2642C86.6278 19.8788 87.7471 20.1117 88.6221 20.5776C89.4971 21.0379 90.1449 21.6714 90.5653 22.4782C90.9858 23.285 91.196 24.2026 91.196 25.2311C91.196 26.2595 90.9858 27.1714 90.5653 27.9669C90.1449 28.7623 89.5 29.3873 88.6306 29.8419C87.7613 30.2907 86.6505 30.5151 85.2983 30.5151H80.5255V28.6061H85.2301C86.1619 28.6061 86.9119 28.4697 87.4801 28.197C88.0539 27.9242 88.4687 27.5379 88.7244 27.0379C88.9858 26.5322 89.1164 25.9299 89.1164 25.2311C89.1164 24.5322 88.9858 23.9214 88.7244 23.3987C88.463 22.8759 88.0454 22.4725 87.4716 22.1884C86.8977 21.8987 86.1392 21.7538 85.196 21.7538H81.4801V37.3333H79.3664ZM87.5824 29.4924L91.8778 37.3333H89.4233L85.196 29.4924H87.5824ZM111.013 24.2424C110.911 23.3788 110.496 22.7083 109.769 22.2311C109.042 21.7538 108.15 21.5151 107.093 21.5151C106.32 21.5151 105.644 21.6401 105.065 21.8901C104.491 22.1401 104.042 22.4839 103.718 22.9214C103.4 23.3589 103.241 23.8561 103.241 24.4129C103.241 24.8788 103.352 25.2794 103.573 25.6146C103.8 25.9441 104.09 26.2197 104.442 26.4413C104.795 26.6572 105.164 26.8362 105.55 26.9782C105.937 27.1146 106.292 27.2254 106.616 27.3106L108.388 27.7879C108.843 27.9072 109.349 28.072 109.906 28.2822C110.468 28.4924 111.005 28.7794 111.516 29.143C112.033 29.5009 112.459 29.9612 112.795 30.5237C113.13 31.0862 113.298 31.7765 113.298 32.5947C113.298 33.5379 113.05 34.3901 112.556 35.1515C112.067 35.9129 111.352 36.518 110.408 36.9669C109.471 37.4157 108.332 37.6401 106.991 37.6401C105.741 37.6401 104.658 37.4384 103.744 37.035C102.834 36.6316 102.119 36.0691 101.596 35.3475C101.079 34.6259 100.786 33.7879 100.718 32.8333H102.9C102.957 33.4924 103.178 34.0379 103.565 34.4697C103.957 34.8958 104.451 35.214 105.048 35.4242C105.65 35.6288 106.298 35.7311 106.991 35.7311C107.798 35.7311 108.522 35.6004 109.164 35.339C109.806 35.072 110.315 34.7026 110.69 34.2311C111.065 33.7538 111.252 33.197 111.252 32.5606C111.252 31.9811 111.09 31.5095 110.766 31.1458C110.442 30.7822 110.016 30.4867 109.488 30.2595C108.959 30.0322 108.388 29.8333 107.775 29.6629L105.627 29.0492C104.263 28.6572 103.184 28.0975 102.388 27.3703C101.593 26.643 101.195 25.6913 101.195 24.5151C101.195 23.5379 101.459 22.6856 101.988 21.9583C102.522 21.2254 103.238 20.6572 104.136 20.2538C105.039 19.8447 106.048 19.6401 107.161 19.6401C108.286 19.6401 109.286 19.8419 110.161 20.2453C111.036 20.643 111.729 21.1884 112.241 21.8816C112.758 22.5748 113.031 23.3617 113.059 24.2424H111.013ZM116.773 37.3333V19.8788H118.886V27.6515H128.193V19.8788H130.307V37.3333H128.193V29.5265H118.886V37.3333H116.773ZM149.266 28.6061C149.266 30.447 148.933 32.0379 148.268 33.3788C147.604 34.7197 146.692 35.7538 145.533 36.4811C144.374 37.2083 143.05 37.572 141.561 37.572C140.072 37.572 138.749 37.2083 137.589 36.4811C136.43 35.7538 135.518 34.7197 134.854 33.3788C134.189 32.0379 133.857 30.447 133.857 28.6061C133.857 26.7651 134.189 25.1742 134.854 23.8333C135.518 22.4924 136.43 21.4583 137.589 20.7311C138.749 20.0038 140.072 19.6401 141.561 19.6401C143.05 19.6401 144.374 20.0038 145.533 20.7311C146.692 21.4583 147.604 22.4924 148.268 23.8333C148.933 25.1742 149.266 26.7651 149.266 28.6061ZM147.22 28.6061C147.22 27.0947 146.967 25.8191 146.462 24.7794C145.962 23.7396 145.283 22.9526 144.425 22.4186C143.572 21.8845 142.618 21.6174 141.561 21.6174C140.504 21.6174 139.547 21.8845 138.689 22.4186C137.837 22.9526 137.158 23.7396 136.652 24.7794C136.152 25.8191 135.902 27.0947 135.902 28.6061C135.902 30.1174 136.152 31.393 136.652 32.4328C137.158 33.4725 137.837 34.2595 138.689 34.7936C139.547 35.3276 140.504 35.5947 141.561 35.5947C142.618 35.5947 143.572 35.3276 144.425 34.7936C145.283 34.2595 145.962 33.4725 146.462 32.4328C146.967 31.393 147.22 30.1174 147.22 28.6061ZM152.82 37.3333V19.8788H158.717C160.087 19.8788 161.206 20.1259 162.075 20.6203C162.95 21.1089 163.598 21.7708 164.018 22.6061C164.439 23.4413 164.649 24.3731 164.649 25.4015C164.649 26.4299 164.439 27.3646 164.018 28.2055C163.604 29.0464 162.962 29.7169 162.092 30.2169C161.223 30.7112 160.109 30.9583 158.751 30.9583H154.524V29.0833H158.683C159.621 29.0833 160.374 28.9214 160.942 28.5975C161.51 28.2737 161.922 27.8362 162.178 27.285C162.439 26.7282 162.57 26.1004 162.57 25.4015C162.57 24.7026 162.439 24.0776 162.178 23.5265C161.922 22.9754 161.507 22.5436 160.933 22.2311C160.359 21.9129 159.598 21.7538 158.649 21.7538H154.933V37.3333H152.82Z" fill="#E0B000"/>
<path d="M67.3494 51.651C67.0454 51.651 66.7254 51.527 66.3894 51.279C66.2454 51.175 66.1214 51.031 66.0174 50.847C65.9614 50.751 65.9334 50.647 65.9334 50.535C65.9334 50.407 65.9774 50.343 66.0654 50.343C66.1054 50.343 66.1534 50.379 66.2094 50.451C66.2734 50.515 66.3294 50.599 66.3774 50.703C66.4494 50.863 66.5254 51.003 66.6054 51.123C66.6854 51.235 66.8134 51.291 66.9894 51.291C67.1494 51.291 67.2814 51.199 67.3854 51.015C67.4894 50.831 67.5694 50.595 67.6254 50.307C67.6894 50.019 67.7334 49.715 67.7574 49.395C67.7894 49.075 67.8094 48.783 67.8174 48.519C67.8254 48.247 67.8334 48.039 67.8414 47.895C67.4654 48.351 67.1094 48.783 66.7734 49.191C66.4454 49.591 66.1334 49.967 65.8374 50.319C65.8054 50.359 65.7774 50.379 65.7534 50.379C65.7294 50.379 65.7174 50.355 65.7174 50.307C65.7174 50.219 65.7374 50.147 65.7774 50.091C65.9374 49.899 66.1134 49.687 66.3054 49.455C66.4974 49.215 66.6894 48.975 66.8814 48.735C67.0814 48.495 67.2574 48.283 67.4094 48.099C67.5694 47.907 67.6854 47.763 67.7574 47.667C67.7574 47.427 67.8134 47.239 67.9254 47.103C68.0374 46.959 68.1734 46.855 68.3334 46.791C68.4934 46.727 68.6454 46.695 68.7894 46.695C68.9254 46.695 69.0254 46.711 69.0894 46.743C69.1454 46.767 69.1734 46.795 69.1734 46.827C69.1734 46.851 69.1334 46.875 69.0534 46.899C68.8614 46.947 68.7254 47.051 68.6454 47.211C68.5654 47.363 68.5134 47.551 68.4894 47.775C68.4734 47.991 68.4654 48.223 68.4654 48.471C68.4654 48.839 68.4494 49.227 68.4174 49.635C68.3854 50.043 68.3334 50.387 68.2614 50.667C68.2454 50.723 68.2214 50.783 68.1894 50.847C68.1654 50.911 68.1414 50.975 68.1174 51.039C68.3414 50.879 68.5614 50.707 68.7774 50.523C68.9934 50.331 69.1614 50.171 69.2814 50.043C69.3694 49.955 69.4454 49.871 69.5094 49.791C69.5814 49.703 69.6534 49.615 69.7254 49.527C69.7414 49.503 69.7614 49.491 69.7854 49.491C69.8334 49.491 69.8574 49.523 69.8574 49.587C69.8574 49.627 69.8374 49.667 69.7974 49.707C69.6294 49.907 69.4574 50.119 69.2814 50.343C69.1134 50.567 68.9254 50.763 68.7174 50.931C68.6294 51.003 68.5174 51.095 68.3814 51.207C68.2454 51.319 68.1094 51.411 67.9734 51.483C67.7494 51.595 67.5414 51.651 67.3494 51.651ZM71.8141 46.635C71.7261 46.635 71.6541 46.607 71.5981 46.551C71.5421 46.487 71.5141 46.415 71.5141 46.335C71.5141 46.215 71.5541 46.115 71.6341 46.035C71.7221 45.947 71.8181 45.903 71.9221 45.903C72.0261 45.903 72.1061 45.939 72.1621 46.011C72.2261 46.075 72.2501 46.159 72.2341 46.263C72.2101 46.367 72.1581 46.455 72.0781 46.527C72.0061 46.599 71.9181 46.635 71.8141 46.635ZM70.1701 51.375C69.9941 51.375 69.8421 51.319 69.7141 51.207C69.5861 51.087 69.5221 50.887 69.5221 50.607C69.5221 50.487 69.5341 50.355 69.5581 50.211C69.6301 49.835 69.7461 49.475 69.9061 49.131C70.0741 48.787 70.2341 48.491 70.3861 48.243C70.5461 47.987 70.6501 47.819 70.6981 47.739C70.7381 47.659 70.8421 47.583 71.0101 47.511C71.1781 47.431 71.3181 47.391 71.4301 47.391C71.5261 47.391 71.5741 47.423 71.5741 47.487C71.5741 47.543 71.5541 47.595 71.5141 47.643C71.3941 47.835 71.2541 48.055 71.0941 48.303C70.9421 48.543 70.7941 48.799 70.6501 49.071C70.5061 49.343 70.3861 49.611 70.2901 49.875C70.1941 50.139 70.1461 50.383 70.1461 50.607C70.1461 50.727 70.1661 50.823 70.2061 50.895C70.2541 50.967 70.3381 51.003 70.4581 51.003C70.5861 51.003 70.7341 50.943 70.9021 50.823C71.0701 50.695 71.2301 50.555 71.3821 50.403C71.5421 50.243 71.6581 50.119 71.7301 50.031C71.8101 49.943 71.8861 49.859 71.9581 49.779C72.0381 49.699 72.1101 49.615 72.1741 49.527C72.1981 49.503 72.2181 49.491 72.2341 49.491C72.2821 49.491 72.3061 49.527 72.3061 49.599C72.3061 49.639 72.2901 49.675 72.2581 49.707C72.1701 49.811 72.0821 49.919 71.9941 50.031C71.9061 50.135 71.8141 50.239 71.7181 50.343C71.5901 50.495 71.4461 50.651 71.2861 50.811C71.1261 50.971 70.9541 51.107 70.7701 51.219C70.5861 51.323 70.3861 51.375 70.1701 51.375ZM71.3596 51.447C71.7036 50.807 71.9876 50.191 72.2116 49.599C72.4436 48.999 72.7076 48.395 73.0036 47.787C73.0916 47.627 73.2036 47.519 73.3396 47.463C73.4756 47.399 73.6076 47.367 73.7356 47.367C73.8396 47.367 73.9316 47.379 74.0116 47.403C73.9876 47.459 73.9236 47.571 73.8196 47.739C73.7236 47.899 73.6196 48.083 73.5076 48.291C73.4276 48.435 73.3076 48.659 73.1476 48.963C72.9876 49.259 72.8396 49.567 72.7036 49.887C72.7756 49.799 72.8876 49.655 73.0396 49.455C73.1916 49.255 73.3676 49.039 73.5676 48.807C73.7676 48.567 73.9756 48.339 74.1916 48.123C74.4156 47.899 74.6316 47.719 74.8396 47.583C75.0556 47.439 75.2476 47.367 75.4156 47.367C75.5436 47.367 75.6556 47.407 75.7516 47.487C75.8476 47.567 75.8956 47.675 75.8956 47.811C75.8956 48.011 75.8116 48.247 75.6436 48.519C75.4756 48.783 75.3076 49.043 75.1396 49.299C75.1076 49.347 75.0476 49.439 74.9596 49.575C74.8796 49.711 74.7916 49.867 74.6956 50.043C74.5996 50.211 74.5156 50.375 74.4436 50.535C74.3796 50.687 74.3476 50.807 74.3476 50.895C74.3476 50.983 74.3836 51.027 74.4556 51.027C74.6076 51.027 74.7636 50.967 74.9236 50.847C75.0916 50.727 75.2516 50.591 75.4036 50.439C75.5556 50.279 75.6756 50.147 75.7636 50.043C75.8516 49.947 75.9316 49.855 76.0036 49.767C76.0756 49.679 76.1476 49.595 76.2196 49.515C76.2436 49.491 76.2636 49.479 76.2796 49.479C76.3276 49.479 76.3516 49.515 76.3516 49.587C76.3516 49.635 76.3356 49.675 76.3036 49.707C76.2156 49.811 76.1276 49.919 76.0396 50.031C75.9516 50.135 75.8596 50.239 75.7636 50.343C75.6756 50.447 75.5836 50.551 75.4876 50.655C75.3996 50.751 75.3076 50.843 75.2116 50.931C74.8676 51.251 74.5476 51.411 74.2516 51.411C74.0516 51.411 73.9156 51.351 73.8436 51.231C73.7796 51.111 73.7476 50.963 73.7476 50.787C73.7476 50.595 73.7996 50.387 73.9036 50.163C74.0076 49.939 74.1356 49.711 74.2876 49.479C74.4396 49.239 74.5916 49.007 74.7436 48.783C74.9036 48.559 75.0356 48.355 75.1396 48.171C75.2436 47.979 75.2956 47.819 75.2956 47.691C75.2956 47.643 75.2676 47.619 75.2116 47.619C75.1636 47.619 75.0676 47.679 74.9236 47.799C74.7876 47.911 74.6396 48.047 74.4796 48.207C74.3196 48.359 74.1676 48.507 74.0236 48.651C73.8876 48.795 73.7956 48.899 73.7476 48.963C73.5476 49.179 73.3516 49.411 73.1596 49.659C72.9756 49.907 72.7996 50.147 72.6316 50.379C72.5356 50.515 72.4516 50.655 72.3796 50.799C72.3076 50.935 72.2276 51.079 72.1396 51.231C72.0996 51.303 72.0436 51.347 71.9716 51.363C71.9076 51.371 71.8196 51.379 71.7076 51.387C71.6276 51.387 71.5636 51.387 71.5156 51.387C71.4676 51.395 71.4156 51.415 71.3596 51.447ZM76.9991 51.555C76.6871 51.555 76.4351 51.475 76.2431 51.315C76.0511 51.155 75.9551 50.903 75.9551 50.559C75.9551 50.319 75.9911 50.071 76.0631 49.815C76.1431 49.551 76.2231 49.343 76.3031 49.191C76.4711 48.855 76.6751 48.547 76.9151 48.267C77.1551 47.987 77.4071 47.763 77.6711 47.595C77.9431 47.419 78.1951 47.331 78.4271 47.331C78.6591 47.331 78.8391 47.411 78.9671 47.571C79.0951 47.723 79.1591 47.891 79.1591 48.075C79.1591 48.235 79.1151 48.371 79.0271 48.483C78.9151 48.635 78.8191 48.743 78.7391 48.807C78.6591 48.871 78.5991 48.903 78.5591 48.903C78.5191 48.903 78.4991 48.875 78.4991 48.819C78.4991 48.771 78.5191 48.695 78.5591 48.591C78.5751 48.543 78.6071 48.459 78.6551 48.339C78.7031 48.219 78.7471 48.099 78.7871 47.979C78.8271 47.859 78.8431 47.779 78.8351 47.739C78.7151 47.715 78.5431 47.783 78.3191 47.943C78.1031 48.095 77.8791 48.299 77.6471 48.555C77.4151 48.803 77.2231 49.067 77.0711 49.347C77.0391 49.411 76.9831 49.531 76.9031 49.707C76.8231 49.883 76.7511 50.075 76.6871 50.283C76.6231 50.483 76.5911 50.671 76.5911 50.847C76.5911 50.983 76.6231 51.099 76.6871 51.195C76.7511 51.283 76.8591 51.327 77.0111 51.327C77.1391 51.327 77.2911 51.295 77.4671 51.231C77.7711 51.135 78.0511 50.975 78.3071 50.751C78.5711 50.527 78.8151 50.291 79.0391 50.043C79.1191 49.955 79.1951 49.871 79.2671 49.791C79.3391 49.711 79.4071 49.631 79.4711 49.551C79.4871 49.535 79.4991 49.523 79.5071 49.515C79.5231 49.499 79.5351 49.491 79.5431 49.491C79.5831 49.491 79.6031 49.523 79.6031 49.587C79.6031 49.643 79.5871 49.691 79.5551 49.731C79.4751 49.835 79.3911 49.939 79.3031 50.043C79.2151 50.147 79.1271 50.251 79.0391 50.355C78.7751 50.651 78.4751 50.927 78.1391 51.183C77.8111 51.431 77.4311 51.555 76.9991 51.555ZM80.2318 51.555C79.9358 51.555 79.6998 51.471 79.5238 51.303C79.3478 51.127 79.2598 50.883 79.2598 50.571C79.2598 50.331 79.3038 50.079 79.3918 49.815C79.4878 49.551 79.5798 49.343 79.6678 49.191C79.8518 48.855 80.0718 48.547 80.3278 48.267C80.5918 47.987 80.8598 47.763 81.1318 47.595C81.4118 47.419 81.6678 47.331 81.8998 47.331C82.1158 47.331 82.2998 47.391 82.4518 47.511C82.6118 47.631 82.6918 47.791 82.6918 47.991C82.6918 48.071 82.6718 48.163 82.6318 48.267C82.5918 48.371 82.5278 48.479 82.4398 48.591C82.1198 48.999 81.7638 49.319 81.3718 49.551C80.9878 49.775 80.5478 49.943 80.0518 50.055C80.0198 50.159 79.9918 50.263 79.9678 50.367C79.9438 50.463 79.9238 50.555 79.9078 50.643C79.8998 50.683 79.8918 50.723 79.8838 50.763C79.8838 50.795 79.8838 50.831 79.8838 50.871C79.8838 51.031 79.9198 51.147 79.9918 51.219C80.0718 51.283 80.1678 51.315 80.2798 51.315C80.4558 51.315 80.6438 51.271 80.8438 51.183C81.0438 51.087 81.2318 50.979 81.4078 50.859C81.5838 50.739 81.7158 50.643 81.8038 50.571C81.8918 50.491 81.9758 50.411 82.0558 50.331C82.1438 50.243 82.2398 50.147 82.3438 50.043C82.4238 49.955 82.4998 49.871 82.5718 49.791C82.6438 49.703 82.7118 49.615 82.7758 49.527C82.7998 49.503 82.8198 49.491 82.8358 49.491C82.8838 49.491 82.9078 49.527 82.9078 49.599C82.9078 49.639 82.8918 49.675 82.8598 49.707C82.7158 49.883 82.5718 50.059 82.4278 50.235C82.2838 50.403 82.1358 50.567 81.9838 50.727C81.8078 50.911 81.5638 51.095 81.2518 51.279C80.9478 51.463 80.6078 51.555 80.2318 51.555ZM80.1238 49.899C80.3318 49.811 80.5718 49.683 80.8438 49.515C81.1238 49.347 81.3918 49.147 81.6478 48.915C81.9118 48.675 82.1278 48.419 82.2958 48.147C82.3518 48.059 82.3798 47.979 82.3798 47.907C82.3798 47.795 82.3158 47.739 82.1878 47.739C82.0998 47.739 81.9918 47.771 81.8638 47.835C81.4638 48.051 81.1198 48.343 80.8318 48.711C80.5438 49.079 80.3078 49.475 80.1238 49.899ZM84.1124 51.639C84.0404 51.623 83.9764 51.551 83.9204 51.423C83.8564 51.303 83.8284 51.219 83.8364 51.171C84.0604 51.083 84.2804 50.971 84.4964 50.835C84.7124 50.699 84.9284 50.547 85.1444 50.379C85.3844 50.195 85.6644 49.963 85.9844 49.683C86.3124 49.403 86.6444 49.095 86.9804 48.759C87.3164 48.415 87.6284 48.059 87.9164 47.691C88.2044 47.315 88.4364 46.943 88.6124 46.575C88.7884 46.207 88.8764 45.859 88.8764 45.531C88.8764 45.347 88.8324 45.223 88.7444 45.159C88.6564 45.095 88.5564 45.063 88.4444 45.063C88.1964 45.063 87.9604 45.135 87.7364 45.279C87.5124 45.415 87.3084 45.583 87.1244 45.783C86.9484 45.975 86.8084 46.167 86.7044 46.359C86.6004 46.551 86.5404 46.703 86.5244 46.815C86.4364 46.799 86.3564 46.711 86.2844 46.551C86.2204 46.391 86.1964 46.235 86.2124 46.083C86.3564 45.819 86.5684 45.587 86.8484 45.387C87.1364 45.179 87.4444 45.019 87.7724 44.907C88.1084 44.787 88.4204 44.727 88.7084 44.727C88.9884 44.727 89.2164 44.795 89.3924 44.931C89.5684 45.067 89.6564 45.307 89.6564 45.651C89.6564 45.995 89.5564 46.355 89.3564 46.731C89.1644 47.107 88.9084 47.483 88.5884 47.859C88.2684 48.227 87.9204 48.583 87.5444 48.927C87.1684 49.271 86.7924 49.587 86.4164 49.875C86.0484 50.155 85.7204 50.395 85.4324 50.595L84.8564 51.003C85.0004 50.955 85.1924 50.903 85.4324 50.847C85.6804 50.783 85.9444 50.727 86.2244 50.679C86.5044 50.631 86.7684 50.607 87.0164 50.607C87.2324 50.607 87.4164 50.631 87.5684 50.679C87.7044 50.727 87.8204 50.795 87.9164 50.883C88.0204 50.971 88.0604 51.103 88.0364 51.279C88.0204 51.335 87.9924 51.391 87.9524 51.447C87.9124 51.511 87.8724 51.543 87.8324 51.543C87.8084 51.519 87.7844 51.487 87.7604 51.447C87.7364 51.407 87.6804 51.371 87.5924 51.339C87.5124 51.307 87.4124 51.287 87.2924 51.279C87.1804 51.271 87.0564 51.267 86.9204 51.267C86.6724 51.267 86.4004 51.283 86.1044 51.315C85.8084 51.339 85.5244 51.371 85.2524 51.411C84.9804 51.459 84.7444 51.503 84.5444 51.543C84.3524 51.583 84.2324 51.611 84.1844 51.627C84.1604 51.627 84.1444 51.627 84.1364 51.627C84.1284 51.635 84.1204 51.639 84.1124 51.639ZM90.7646 51.567C90.2446 51.567 89.8766 51.407 89.6606 51.087C89.4526 50.759 89.3486 50.319 89.3486 49.767C89.3486 49.383 89.4126 48.967 89.5406 48.519C89.6766 48.063 89.8606 47.615 90.0926 47.175C90.3246 46.727 90.5886 46.323 90.8846 45.963C91.1886 45.595 91.5086 45.303 91.8446 45.087C92.1886 44.863 92.5326 44.751 92.8766 44.751C93.4046 44.751 93.7846 44.927 94.0166 45.279C94.2486 45.623 94.3646 46.079 94.3646 46.647C94.3646 47.111 94.2886 47.575 94.1366 48.039C93.9926 48.503 93.7926 48.947 93.5366 49.371C93.2886 49.795 93.0086 50.171 92.6966 50.499C92.3846 50.827 92.0606 51.087 91.7246 51.279C91.3886 51.471 91.0686 51.567 90.7646 51.567ZM90.6686 51.267C90.9806 51.267 91.2846 51.147 91.5806 50.907C91.8846 50.659 92.1686 50.339 92.4326 49.947C92.6966 49.547 92.9286 49.115 93.1286 48.651C93.3366 48.179 93.4966 47.719 93.6086 47.271C93.7286 46.815 93.7886 46.411 93.7886 46.059C93.7886 45.779 93.7406 45.559 93.6446 45.399C93.5566 45.239 93.4086 45.159 93.2006 45.159C92.8646 45.159 92.5366 45.275 92.2166 45.507C91.9046 45.731 91.6086 46.027 91.3286 46.395C91.0566 46.763 90.8166 47.167 90.6086 47.607C90.4006 48.039 90.2366 48.471 90.1166 48.903C90.0046 49.335 89.9486 49.719 89.9486 50.055C89.9486 50.407 90.0006 50.699 90.1046 50.931C90.2086 51.155 90.3966 51.267 90.6686 51.267ZM94.8699 51.675C94.7819 51.675 94.7179 51.615 94.6779 51.495C94.6459 51.383 94.6299 51.251 94.6299 51.099C94.6299 50.907 94.6459 50.707 94.6779 50.499C94.7099 50.291 94.7379 50.135 94.7619 50.031C94.8419 49.703 94.9739 49.327 95.1579 48.903C95.3419 48.471 95.5499 48.039 95.7819 47.607C96.0139 47.167 96.2419 46.759 96.4659 46.383C96.6899 46.007 96.8819 45.703 97.0419 45.471C97.0099 45.479 96.9259 45.519 96.7899 45.591C96.6619 45.663 96.5099 45.743 96.3339 45.831C96.1659 45.911 96.0019 45.987 95.8419 46.059C95.6819 46.131 95.5619 46.179 95.4819 46.203C95.4579 46.211 95.4339 46.215 95.4099 46.215C95.3539 46.215 95.3219 46.199 95.3139 46.167C95.3139 46.127 95.3059 46.103 95.2899 46.095C95.2899 46.087 95.3579 46.035 95.4939 45.939C95.6299 45.835 95.7979 45.711 95.9979 45.567C96.1979 45.423 96.4019 45.283 96.6099 45.147C96.8259 45.003 97.0139 44.883 97.1739 44.787C97.3339 44.691 97.4379 44.643 97.4859 44.643C97.5259 44.643 97.6059 44.663 97.7259 44.703C97.8459 44.735 97.9579 44.779 98.0619 44.835C98.1659 44.891 98.2099 44.947 98.1939 45.003C98.1939 45.011 98.1939 45.023 98.1939 45.039C98.1939 45.055 98.1859 45.067 98.1699 45.075C98.0419 45.251 97.8899 45.475 97.7139 45.747C97.5379 46.011 97.3579 46.291 97.1739 46.587C96.9899 46.883 96.8139 47.175 96.6459 47.463C96.4779 47.743 96.3379 47.995 96.2259 48.219C95.7619 49.099 95.4419 49.811 95.2659 50.355C95.0899 50.891 95.0019 51.299 95.0019 51.579C95.0019 51.643 94.9579 51.675 94.8699 51.675ZM98.0664 51.663C97.6424 51.663 97.2864 51.551 96.9984 51.327C96.7184 51.103 96.5784 50.771 96.5784 50.331C96.5784 50.147 96.6184 49.963 96.6984 49.779C96.7784 49.595 96.8864 49.439 97.0224 49.311C97.1664 49.183 97.3224 49.119 97.4904 49.119C97.5624 49.119 97.6344 49.131 97.7064 49.155C97.6024 49.195 97.5024 49.291 97.4064 49.443C97.3184 49.587 97.2464 49.747 97.1904 49.923C97.1424 50.091 97.1184 50.235 97.1184 50.355C97.1184 50.659 97.2024 50.899 97.3704 51.075C97.5464 51.251 97.7784 51.339 98.0664 51.339C98.3704 51.339 98.6664 51.247 98.9544 51.063C99.2424 50.879 99.4984 50.647 99.7224 50.367C99.9544 50.079 100.134 49.779 100.262 49.467C100.398 49.155 100.466 48.871 100.466 48.615C100.466 48.271 100.398 48.027 100.262 47.883C100.126 47.731 99.9384 47.655 99.6984 47.655C99.5944 47.655 99.4544 47.699 99.2784 47.787C99.1104 47.875 98.9344 48.003 98.7504 48.171C98.5744 48.331 98.4184 48.523 98.2824 48.747C98.1704 48.747 98.0824 48.691 98.0184 48.579C97.9544 48.459 97.9224 48.323 97.9224 48.171C97.9224 48.027 97.9464 47.903 97.9944 47.799C97.9944 47.799 98.0344 47.727 98.1144 47.583C98.1944 47.439 98.2944 47.255 98.4144 47.031C98.5424 46.807 98.6704 46.575 98.7984 46.335C98.9344 46.087 99.0544 45.863 99.1584 45.663C99.0384 45.663 98.9104 45.639 98.7744 45.591C98.6464 45.543 98.5824 45.419 98.5824 45.219C98.8144 45.147 99.0864 45.091 99.3984 45.051C99.7104 45.011 100.026 44.983 100.346 44.967C100.674 44.951 100.966 44.943 101.222 44.943C101.478 44.935 101.658 44.931 101.762 44.931C102.074 44.931 102.298 44.955 102.434 45.003C102.578 45.043 102.67 45.107 102.71 45.195C102.75 45.275 102.77 45.383 102.77 45.519C102.674 45.503 102.518 45.487 102.302 45.471C102.094 45.455 101.862 45.447 101.606 45.447C101.494 45.447 101.378 45.451 101.258 45.459C101.146 45.459 101.034 45.463 100.922 45.471C100.714 45.487 100.506 45.527 100.298 45.591C100.09 45.647 99.9304 45.727 99.8184 45.831L98.7624 47.523C98.8584 47.475 99.0184 47.431 99.2424 47.391C99.4664 47.351 99.6584 47.331 99.8184 47.331C100.266 47.331 100.618 47.427 100.874 47.619C101.13 47.803 101.258 48.143 101.258 48.639C101.258 49.007 101.166 49.371 100.982 49.731C100.798 50.083 100.55 50.407 100.238 50.703C99.9344 50.991 99.5944 51.223 99.2184 51.399C98.8424 51.575 98.4584 51.663 98.0664 51.663Z" fill="#E0B000"/>
<path d="M79.732 11.8277C79.556 11.8277 79.408 11.7757 79.288 11.6717C79.168 11.5677 79.108 11.3917 79.108 11.1437C79.108 11.0797 79.112 11.0157 79.12 10.9517C79.128 10.8877 79.14 10.8197 79.156 10.7477C79.22 10.4277 79.352 10.0397 79.552 9.58367C79.752 9.11967 80.008 8.59567 80.32 8.01167H79.864C79.776 8.01167 79.732 7.98767 79.732 7.93967C79.732 7.91567 79.752 7.89167 79.792 7.86767C79.84 7.83567 79.904 7.81967 79.984 7.81967H80.416C80.552 7.58767 80.66 7.40767 80.74 7.27967C80.828 7.14367 80.9 7.03967 80.956 6.96767C81.164 6.70367 81.352 6.51967 81.52 6.41567C81.696 6.30367 81.848 6.23967 81.976 6.22367C82.104 6.20767 82.196 6.19967 82.252 6.19967C82.14 6.31967 82.016 6.47567 81.88 6.66767C81.744 6.85967 81.612 7.05967 81.484 7.26767C81.356 7.46767 81.248 7.65167 81.16 7.81967H82.384C82.472 7.81967 82.516 7.83967 82.516 7.87967C82.516 7.91167 82.492 7.94367 82.444 7.97567C82.396 7.99967 82.332 8.01167 82.252 8.01167H81.04C80.912 8.24367 80.796 8.45167 80.692 8.63567C80.596 8.81167 80.496 8.99967 80.392 9.19967C80.296 9.39967 80.176 9.64767 80.032 9.94367C79.92 10.1917 79.836 10.4037 79.78 10.5797C79.732 10.7557 79.708 10.9037 79.708 11.0237C79.708 11.1757 79.74 11.2837 79.804 11.3477C79.868 11.4117 79.948 11.4437 80.044 11.4437C80.14 11.4437 80.252 11.4117 80.38 11.3477C80.556 11.2597 80.732 11.1317 80.908 10.9637C81.084 10.7957 81.252 10.6237 81.412 10.4477C81.492 10.3597 81.568 10.2757 81.64 10.1957C81.712 10.1157 81.78 10.0317 81.844 9.94367C81.868 9.91967 81.888 9.90767 81.904 9.90767C81.952 9.90767 81.976 9.93967 81.976 10.0037C81.976 10.0517 81.96 10.0917 81.928 10.1237C81.76 10.3317 81.584 10.5437 81.4 10.7597C81.184 11.0077 80.944 11.2477 80.68 11.4797C80.416 11.7117 80.1 11.8277 79.732 11.8277ZM81.077 11.8517C81.477 10.8517 81.881 9.92767 82.289 9.07967C82.705 8.23167 83.097 7.47167 83.465 6.79967C83.737 6.29567 83.997 5.91567 84.245 5.65967C84.501 5.40367 84.733 5.23167 84.941 5.14367C85.149 5.05567 85.321 5.01567 85.457 5.02367C85.265 5.23167 85.045 5.52367 84.797 5.89967C84.549 6.26767 84.289 6.69167 84.017 7.17167C83.745 7.65167 83.473 8.15967 83.201 8.69567C82.929 9.22367 82.673 9.75167 82.433 10.2797C82.505 10.1837 82.609 10.0477 82.745 9.87167C82.889 9.68767 83.053 9.48767 83.237 9.27167C83.421 9.05567 83.609 8.85167 83.801 8.65967C84.001 8.45967 84.197 8.29967 84.389 8.17967C84.581 8.05167 84.753 7.98767 84.905 7.98767C85.081 7.98767 85.197 8.03167 85.253 8.11967C85.317 8.19967 85.349 8.29567 85.349 8.40767C85.349 8.55967 85.297 8.73967 85.193 8.94767C85.097 9.15567 84.977 9.36767 84.833 9.58367C84.689 9.79967 84.545 10.0077 84.401 10.2077C84.265 10.4077 84.157 10.5837 84.077 10.7357C83.965 10.9597 83.909 11.1357 83.909 11.2637C83.909 11.3837 83.961 11.4437 84.065 11.4437C84.097 11.4437 84.137 11.4357 84.185 11.4197C84.241 11.4037 84.297 11.3797 84.353 11.3477C84.529 11.2597 84.705 11.1317 84.881 10.9637C85.057 10.7957 85.225 10.6237 85.385 10.4477C85.465 10.3597 85.541 10.2757 85.613 10.1957C85.685 10.1157 85.753 10.0317 85.817 9.94367C85.841 9.91967 85.861 9.90767 85.877 9.90767C85.925 9.90767 85.949 9.94367 85.949 10.0157C85.949 10.0557 85.933 10.0917 85.901 10.1237C85.733 10.3317 85.557 10.5437 85.373 10.7597C85.277 10.8637 85.181 10.9677 85.085 11.0717C84.997 11.1677 84.909 11.2597 84.821 11.3477C84.477 11.6677 84.153 11.8277 83.849 11.8277C83.689 11.8277 83.569 11.7797 83.489 11.6837C83.417 11.5797 83.381 11.4517 83.381 11.2997C83.381 11.0917 83.433 10.8517 83.537 10.5797C83.649 10.2997 83.785 10.0357 83.945 9.78767C83.961 9.76367 84.009 9.68767 84.089 9.55967C84.177 9.43167 84.273 9.28367 84.377 9.11567C84.481 8.93967 84.573 8.77967 84.653 8.63567C84.733 8.48367 84.773 8.37567 84.773 8.31167C84.773 8.25567 84.741 8.23967 84.677 8.26367C84.613 8.28767 84.501 8.36767 84.341 8.50367C84.173 8.64767 83.985 8.83167 83.777 9.05567C83.569 9.27967 83.353 9.52367 83.129 9.78767C82.905 10.0437 82.693 10.3037 82.493 10.5677C82.301 10.8317 82.133 11.0757 81.989 11.2997L81.917 11.5037C81.869 11.6317 81.797 11.7157 81.701 11.7557C81.613 11.7877 81.517 11.8037 81.413 11.8037C81.301 11.8037 81.189 11.8197 81.077 11.8517ZM86.5619 11.9717C86.2659 11.9717 86.0299 11.8877 85.8539 11.7197C85.6779 11.5437 85.5899 11.2997 85.5899 10.9877C85.5899 10.7477 85.6339 10.4957 85.7219 10.2317C85.8179 9.96767 85.9099 9.75967 85.9979 9.60767C86.1819 9.27167 86.4019 8.96367 86.6579 8.68367C86.9219 8.40367 87.1899 8.17967 87.4619 8.01167C87.7419 7.83567 87.9979 7.74767 88.2299 7.74767C88.4459 7.74767 88.6299 7.80767 88.7819 7.92767C88.9419 8.04767 89.0219 8.20767 89.0219 8.40767C89.0219 8.48767 89.0019 8.57967 88.9619 8.68367C88.9219 8.78767 88.8579 8.89567 88.7699 9.00767C88.4499 9.41567 88.0939 9.73567 87.7019 9.96767C87.3179 10.1917 86.8779 10.3597 86.3819 10.4717C86.3499 10.5757 86.3219 10.6797 86.2979 10.7837C86.2739 10.8797 86.2539 10.9717 86.2379 11.0597C86.2299 11.0997 86.2219 11.1397 86.2139 11.1797C86.2139 11.2117 86.2139 11.2477 86.2139 11.2877C86.2139 11.4477 86.2499 11.5637 86.3219 11.6357C86.4019 11.6997 86.4979 11.7317 86.6099 11.7317C86.7859 11.7317 86.9739 11.6877 87.1739 11.5997C87.3739 11.5037 87.5619 11.3957 87.7379 11.2757C87.9139 11.1557 88.0459 11.0597 88.1339 10.9877C88.2219 10.9077 88.3059 10.8277 88.3859 10.7477C88.4739 10.6597 88.5699 10.5637 88.6739 10.4597C88.7539 10.3717 88.8299 10.2877 88.9019 10.2077C88.9739 10.1197 89.0419 10.0317 89.1059 9.94367C89.1299 9.91967 89.1499 9.90767 89.1659 9.90767C89.2139 9.90767 89.2379 9.94367 89.2379 10.0157C89.2379 10.0557 89.2219 10.0917 89.1899 10.1237C89.0459 10.2997 88.9019 10.4757 88.7579 10.6517C88.6139 10.8197 88.4659 10.9837 88.3139 11.1437C88.1379 11.3277 87.8939 11.5117 87.5819 11.6957C87.2779 11.8797 86.9379 11.9717 86.5619 11.9717ZM86.4539 10.3157C86.6619 10.2277 86.9019 10.0997 87.1739 9.93167C87.4539 9.76367 87.7219 9.56367 87.9779 9.33167C88.2419 9.09167 88.4579 8.83567 88.6259 8.56367C88.6819 8.47567 88.7099 8.39567 88.7099 8.32367C88.7099 8.21167 88.6459 8.15567 88.5179 8.15567C88.4299 8.15567 88.3219 8.18767 88.1939 8.25167C87.7939 8.46767 87.4499 8.75967 87.1619 9.12767C86.8739 9.49567 86.6379 9.89167 86.4539 10.3157Z" fill="#E0B000"/>
<path d="M106.24 11.7292H166.88" stroke="#E0B000"/>
<path d="M1.13068 12.25H61.7707" stroke="#E0B000"/>
<path d="M1.13068 48.1875H49.6427" stroke="#E0B000"/>
<line x1="118.368" y1="48.2083" x2="166.88" y2="48.2083" stroke="#E0B000"/>
</svg>
